<?xml version="1.0" encoding="iso-8859-1"?>
<!-- Generator: Adobe Illustrator 19.0.0, SVG Export Plug-In . SVG Version: 6.00 Build 0)  -->
<svg version="1.1" id="Capa_1" xmlns="http://www.w3.org/2000/svg" xmlns:xlink="http://www.w3.org/1999/xlink" x="0px" y="0px"
	 viewBox="0 0 512 512" style="enable-background:new 0 0 512 512;" xml:space="preserve">
<path style="fill:#EEECED;" d="M474.203,169.375L474.203,169.375c-16.181-12.544-26.798-30.932-29.571-51.217l0,0
	c-5.451-39.883-40.287-69.113-80.51-67.556l0,0c-20.458,0.792-40.411-6.47-55.574-20.227l0,0
	c-29.812-27.048-75.286-27.048-105.097,0l0,0c-15.163,13.756-35.116,21.018-55.574,20.226l0,0
	c-40.223-1.557-75.059,27.673-80.51,67.556l0,0c-2.773,20.285-13.389,38.674-29.57,51.217l0,0
	c-31.814,24.662-39.71,69.446-18.25,103.501l0,0c10.915,17.321,14.602,38.232,10.27,58.242l0,0
	c-8.518,39.342,14.219,78.724,52.549,91.017l0,0c19.495,6.253,35.761,19.902,45.304,38.015l0,0
	c18.763,35.613,61.495,51.166,98.759,35.946l0,0c18.954-7.741,40.187-7.741,59.141,0l0,0c37.265,15.22,79.997-0.333,98.759-35.946
	l0,0c9.543-18.113,25.809-31.762,45.304-38.015l0,0c38.33-12.294,61.067-51.676,52.549-91.017l0,0
	c-4.332-20.01-0.645-40.921,10.27-58.242l0,0C513.913,238.819,506.017,194.036,474.203,169.375z"/>
<path style="fill:#D4D2D3;" d="M77.812,354.267L77.812,354.267c4.84-22.355,0.721-45.716-11.473-65.067l0,0
	c-23.975-38.046-15.153-88.077,20.389-115.629l0,0c18.077-14.014,29.938-34.557,33.035-57.219l0,0
	c4.324-31.637,25.207-57.258,53.036-68.842c-8.017,2.339-16.422,3.42-24.921,3.091l0,0c-40.223-1.557-75.059,27.673-80.51,67.556
	l0,0c-2.773,20.285-13.389,38.674-29.57,51.217l0,0c-31.814,24.663-39.71,69.446-18.25,103.501l0,0
	c10.915,17.321,14.602,38.232,10.27,58.242l0,0c-8.518,39.342,14.219,78.724,52.549,91.017l0,0
	c4.462,1.431,8.744,3.267,12.826,5.438C79.144,407.638,72.034,380.951,77.812,354.267z"/>
<circle style="fill:#FEDD00;" cx="255.999" cy="256" r="121.089"/>
<path style="fill:#E6BB00;" d="M286,367.088c-66.875,0-121.087-54.213-121.087-121.087c0-47.866,27.776-89.239,68.087-108.895
	c-55.874,10.746-98.086,59.887-98.086,118.895c0,66.875,54.213,121.087,121.087,121.087c19.009,0,36.993-4.385,53.001-12.191
	C301.553,366.329,293.866,367.088,286,367.088z"/>
<path d="M347.111,175.899c2.936-2.922,2.947-7.671,0.024-10.606c-24.313-24.426-56.678-37.877-91.134-37.877
	c-70.904,0-128.587,57.684-128.587,128.587S185.096,384.59,256,384.59s128.587-57.684,128.587-128.587
	c0-23.005-6.158-45.59-17.809-65.31c-2.107-3.566-6.707-4.749-10.272-2.643c-3.565,2.106-4.749,6.706-2.643,10.271
	c10.287,17.412,15.724,37.358,15.724,57.681c0,62.633-50.955,113.587-113.587,113.587s-113.587-50.955-113.587-113.587
	S193.367,142.415,256,142.415c30.437,0,59.027,11.883,80.504,33.459C339.426,178.81,344.175,178.821,347.111,175.899z"/>
<path d="M510.692,216.3c-3.705-21.012-15.031-39.782-31.894-52.854c-14.718-11.41-24.213-27.854-26.735-46.306
	c-2.889-21.139-13.481-40.333-29.825-54.048c-16.344-13.714-37.087-20.812-58.406-19.986c-18.603,0.718-36.452-5.774-50.245-18.288
	c-15.801-14.336-36.253-22.231-57.589-22.231s-41.788,7.896-57.589,22.231c-13.792,12.514-31.634,19.008-50.245,18.288
	c-21.311-0.824-42.061,6.272-58.405,19.986s-26.936,32.909-29.825,54.048c-2.522,18.451-12.017,34.896-26.735,46.306
	C16.34,176.52,5.014,195.289,1.309,216.3s0.519,42.524,11.893,60.574c9.928,15.755,13.225,34.456,9.285,52.657
	c-3.29,15.195-2.381,31.001,2.628,45.71c1.335,3.921,5.596,6.016,9.518,4.682c3.921-1.335,6.017-5.597,4.682-9.518
	c-4.132-12.131-4.881-25.167-2.167-37.7c4.777-22.062,0.779-44.73-11.255-63.828c-19.497-30.941-12.403-71.169,16.5-93.574
	c17.84-13.831,29.349-33.765,32.406-56.13c4.953-36.234,36.244-62.493,72.789-61.077c22.553,0.871,44.186-6.999,60.904-22.167
	c27.085-24.574,67.935-24.573,95.019,0c16.719,15.168,38.345,23.038,60.904,22.167c36.537-1.415,67.836,24.843,72.79,61.077
	c3.057,22.365,14.565,42.299,32.406,56.13c28.904,22.406,35.997,62.635,16.5,93.574c-12.034,19.098-16.031,41.766-11.254,63.828
	c7.739,35.743-12.686,71.119-47.51,82.289c-21.495,6.894-39.127,21.69-49.649,41.661c-17.046,32.355-55.433,46.326-89.288,32.498
	c-20.897-8.535-43.915-8.535-64.813,0c-33.857,13.829-72.243-0.144-89.288-32.499c-10.522-19.971-28.155-34.766-49.649-41.66
	c-12.438-3.989-23.503-11.324-31.998-21.213c-2.699-3.141-7.434-3.5-10.576-0.801c-3.142,2.699-3.5,7.435-0.801,10.576
	c10.302,11.99,23.717,20.885,38.795,25.72c17.733,5.688,32.279,17.894,40.96,34.369c9.945,18.876,26.463,33.29,46.512,40.587
	c20.047,7.296,41.967,6.873,61.719-1.194c17.24-7.042,36.229-7.042,53.469,0c10.396,4.246,21.391,6.375,32.4,6.375
	c9.906,0,19.823-1.725,29.319-5.181c20.048-7.297,36.567-21.711,46.512-40.587c8.681-16.476,23.227-28.682,40.96-34.369
	c20.316-6.516,37.379-20.281,48.047-38.758c10.668-18.477,14.056-40.137,9.542-60.989c-3.941-18.201-0.644-36.901,9.285-52.657
	C510.173,258.824,514.397,237.312,510.692,216.3z"/>
<path d="M196.492,247.818v9.412c0,4.142,3.358,7.5,7.5,7.5c4.142,0,7.5-3.358,7.5-7.5v-9.412c0-4.142-3.358-7.5-7.5-7.5
	C199.85,240.318,196.492,243.676,196.492,247.818z"/>
<path d="M300.508,247.818v9.412c0,4.142,3.358,7.5,7.5,7.5s7.5-3.358,7.5-7.5v-9.412c0-4.142-3.358-7.5-7.5-7.5
	S300.508,243.676,300.508,247.818z"/>
<path d="M266.125,252.273c-2.452,2.805-6.142,4.414-10.125,4.414c-3.983,0-7.673-1.609-10.125-4.414
	c-2.726-3.119-7.463-3.437-10.583-0.711c-3.119,2.726-3.437,7.464-0.71,10.583c5.301,6.064,13.107,9.542,21.418,9.542
	s16.118-3.478,21.418-9.542c2.726-3.119,2.408-7.857-0.711-10.583C273.588,248.836,268.851,249.154,266.125,252.273z"/>
<g>
</g>
<g>
</g>
<g>
</g>
<g>
</g>
<g>
</g>
<g>
</g>
<g>
</g>
<g>
</g>
<g>
</g>
<g>
</g>
<g>
</g>
<g>
</g>
<g>
</g>
<g>
</g>
<g>
</g>
</svg>
