<?xml version="1.0" encoding="utf-8"?>
<!-- Generator: Adobe Illustrator 17.0.0, SVG Export Plug-In . SVG Version: 6.00 Build 0)  -->
<!DOCTYPE svg PUBLIC "-//W3C//DTD SVG 1.1//EN" "http://www.w3.org/Graphics/SVG/1.1/DTD/svg11.dtd">
<svg version="1.1" id="Layer_1" xmlns="http://www.w3.org/2000/svg" xmlns:xlink="http://www.w3.org/1999/xlink" x="0px" y="0px"
	 width="427.76px" height="124.782px" viewBox="0 0 427.76 124.782" enable-background="new 0 0 427.76 124.782"
	 xml:space="preserve">
<g>
	<path fill="#F47F12" d="M62.909,117.12l60.239-60.239c2.208-2.208,2.206-5.827-0.003-8.035l-47.19-47.19
		c-2.208-2.208-5.824-2.208-8.033,0l-4.016,4.016L7.681,61.897l-6.024,6.024c-2.211,2.211-2.208,5.824,0,8.033l47.19,47.19
		c1.47,1.47,3.567,1.946,5.463,1.447L7.681,77.962c-2.208-2.208-2.211-5.822-0.003-8.03l47.19,47.19
		C57.082,119.33,60.696,119.333,62.909,117.12z M31.924,65.093c-1.434,0-2.598-1.164-2.598-2.598c0-1.429,1.166-2.595,2.6-2.595
		l22.9-0.003l0,5.196H31.924z M59.636,93.126c-1.439,0-2.598-1.169-2.603-2.603l0.003-38.939c0-0.171,0.062-0.322,0.091-0.486
		c-4.159-1.478-7.235-6.482-7.235-12.493c0.003-7.167,4.364-12.979,9.739-12.981c5.372,0,9.732,5.814,9.731,12.979
		c0,6.011-3.078,11.017-7.238,12.496c0.034,0.164,0.099,0.312,0.099,0.488l0.003,38.939C62.223,91.957,61.064,93.126,59.636,93.126z
		 M94.784,72.234H78.101c-0.13,0-0.247-0.039-0.364-0.073c-5.38-0.314-8.321-3.219-9.17-7.128c-0.104,0.01-0.192,0.062-0.301,0.057
		l-3.827,0.003L64.436,59.9h3.834c0.104,0,0.195,0.049,0.296,0.062c0.849-3.915,3.793-6.822,9.17-7.128
		c0.114-0.031,0.229-0.078,0.359-0.073l16.686-0.003c0.772-0.003,1.398,0.623,1.395,1.395c0,0.769-0.623,1.392-1.398,1.387H78.652
		l-0.003,2.782h16.133c0.764-0.005,1.39,0.621,1.39,1.39c-0.003,0.761-0.623,1.382-1.39,1.39l-16.13,0.003l0.003,2.787h16.127
		c0.769,0,1.392,0.618,1.392,1.387c0,0.769-0.623,1.392-1.392,1.392H78.654v2.78l16.13-0.003c0.769,0,1.395,0.626,1.39,1.39
		C96.179,71.608,95.553,72.234,94.784,72.234z"/>
</g>
<g>
	<path d="M149.037,94.368V47.704h16.104c3.055,0,5.664,0.29,7.826,0.871s3.937,1.409,5.325,2.485
		c1.388,1.076,2.404,2.377,3.05,3.905c0.646,1.528,0.968,3.249,0.968,5.164c0,1.097-0.162,2.146-0.484,3.146s-0.823,1.936-1.5,2.808
		c-0.678,0.871-1.539,1.662-2.582,2.372c-1.044,0.71-2.286,1.313-3.728,1.808c6.411,1.441,9.617,4.905,9.617,10.391
		c0,1.979-0.376,3.808-1.129,5.486c-0.753,1.678-1.851,3.125-3.292,4.34c-1.441,1.216-3.217,2.167-5.325,2.856
		c-2.109,0.689-4.518,1.033-7.229,1.033H149.037z M157.718,67.905h6.938c2.947,0,5.185-0.538,6.712-1.614
		c1.527-1.075,2.291-2.786,2.291-5.131c0-2.431-0.688-4.163-2.065-5.196s-3.528-1.549-6.454-1.549h-7.422V67.905z M157.718,73.908
		v13.683h8.81c1.614,0,2.963-0.194,4.05-0.581s1.958-0.903,2.614-1.549c0.656-0.646,1.129-1.398,1.42-2.259
		c0.291-0.86,0.436-1.775,0.436-2.743c0-1.011-0.161-1.92-0.484-2.727s-0.829-1.495-1.517-2.065c-0.688-0.57-1.57-1.005-2.646-1.307
		c-1.076-0.301-2.377-0.452-3.905-0.452H157.718z"/>
	<path d="M190.634,94.368v-33.11h4.679c0.817,0,1.388,0.151,1.71,0.452c0.323,0.302,0.538,0.818,0.646,1.549l0.484,4.001
		c1.183-2.043,2.571-3.657,4.163-4.841c1.592-1.183,3.377-1.775,5.357-1.775c1.635,0,2.99,0.377,4.066,1.13l-1.033,5.97
		c-0.064,0.388-0.205,0.662-0.419,0.823c-0.215,0.161-0.506,0.242-0.872,0.242c-0.323,0-0.764-0.075-1.323-0.226
		c-0.56-0.15-1.302-0.226-2.227-0.226c-1.657,0-3.077,0.458-4.26,1.372c-1.183,0.915-2.184,2.254-3.001,4.018v20.621H190.634z"/>
	<path d="M224.293,61.258v21.041c0,2.022,0.468,3.587,1.404,4.695c0.936,1.108,2.339,1.662,4.211,1.662
		c1.376,0,2.667-0.307,3.873-0.92c1.205-0.613,2.345-1.457,3.42-2.533V61.258h7.971v33.11h-4.873c-1.033,0-1.71-0.484-2.033-1.452
		l-0.548-2.646c-0.689,0.689-1.399,1.318-2.13,1.888c-0.732,0.57-1.512,1.054-2.34,1.452c-0.829,0.398-1.721,0.71-2.678,0.936
		c-0.958,0.226-1.985,0.338-3.082,0.338c-1.807,0-3.405-0.306-4.792-0.919s-2.555-1.479-3.501-2.598
		c-0.947-1.118-1.662-2.447-2.146-3.985c-0.484-1.538-0.726-3.232-0.726-5.083V61.258H224.293z"/>
	<path d="M253.691,94.368v-33.11h4.873c1.033,0,1.71,0.484,2.033,1.452l0.548,2.614c0.667-0.688,1.372-1.312,2.114-1.872
		c0.742-0.559,1.527-1.043,2.356-1.452c0.828-0.408,1.715-0.721,2.662-0.936s1.979-0.323,3.098-0.323
		c1.807,0,3.41,0.306,4.809,0.919c1.398,0.613,2.565,1.474,3.501,2.582c0.936,1.108,1.646,2.431,2.13,3.969
		c0.484,1.539,0.726,3.232,0.726,5.083v21.073h-7.971V73.295c0-2.022-0.468-3.587-1.404-4.695c-0.936-1.108-2.339-1.662-4.211-1.662
		c-1.377,0-2.668,0.312-3.873,0.936c-1.205,0.624-2.345,1.474-3.42,2.549v23.945H253.691z"/>
	<path d="M313.652,68.26c-0.238,0.301-0.469,0.538-0.693,0.71c-0.227,0.172-0.555,0.258-0.984,0.258
		c-0.41,0-0.807-0.124-1.195-0.371c-0.387-0.247-0.85-0.527-1.388-0.839c-0.538-0.312-1.178-0.591-1.92-0.839
		c-0.742-0.247-1.662-0.371-2.759-0.371c-1.399,0-2.625,0.253-3.68,0.758c-1.054,0.506-1.931,1.232-2.63,2.178
		c-0.699,0.947-1.221,2.093-1.565,3.437c-0.344,1.345-0.516,2.867-0.516,4.566c0,1.764,0.188,3.335,0.564,4.711
		c0.376,1.377,0.92,2.533,1.63,3.469s1.57,1.646,2.581,2.13c1.012,0.484,2.151,0.726,3.421,0.726s2.297-0.156,3.082-0.468
		c0.785-0.312,1.447-0.656,1.985-1.033c0.537-0.376,1.006-0.721,1.404-1.033c0.396-0.312,0.844-0.468,1.338-0.468
		c0.646,0,1.131,0.248,1.453,0.742l2.291,2.904c-0.883,1.033-1.84,1.899-2.873,2.598c-1.031,0.7-2.103,1.259-3.21,1.678
		c-1.108,0.419-2.254,0.715-3.438,0.888c-1.184,0.172-2.355,0.258-3.518,0.258c-2.044,0-3.969-0.382-5.776-1.146
		c-1.807-0.763-3.383-1.877-4.728-3.34c-1.345-1.463-2.41-3.254-3.195-5.374c-0.786-2.119-1.178-4.534-1.178-7.245
		c0-2.431,0.349-4.685,1.049-6.761c0.699-2.076,1.727-3.873,3.082-5.39c1.355-1.517,3.034-2.705,5.034-3.566
		c2.001-0.86,4.303-1.291,6.906-1.291c2.474,0,4.642,0.398,6.503,1.194c1.86,0.796,3.534,1.937,5.019,3.421L313.652,68.26z"/>
	<path d="M321.169,94.368V46.413h7.971V64.84c1.291-1.226,2.711-2.215,4.26-2.969c1.55-0.753,3.367-1.129,5.454-1.129
		c1.808,0,3.41,0.306,4.809,0.919s2.565,1.474,3.501,2.582c0.937,1.108,1.646,2.431,2.13,3.969c0.484,1.539,0.727,3.232,0.727,5.083
		v21.073h-7.971V73.295c0-2.022-0.469-3.587-1.404-4.695c-0.936-1.108-2.34-1.662-4.211-1.662c-1.377,0-2.668,0.312-3.873,0.936
		s-2.345,1.474-3.421,2.549v23.945H321.169z"/>
	<path d="M367.543,51.609c0,0.688-0.141,1.334-0.42,1.936c-0.279,0.603-0.65,1.129-1.113,1.582c-0.463,0.452-1.006,0.812-1.63,1.081
		s-1.291,0.403-2.001,0.403c-0.688,0-1.339-0.134-1.952-0.403s-1.146-0.629-1.598-1.081c-0.451-0.452-0.812-0.979-1.081-1.582
		c-0.269-0.602-0.403-1.248-0.403-1.936c0-0.71,0.135-1.376,0.403-2.001c0.27-0.624,0.63-1.162,1.081-1.614
		c0.452-0.452,0.984-0.812,1.598-1.081c0.613-0.269,1.264-0.403,1.952-0.403c0.71,0,1.377,0.135,2.001,0.403
		c0.624,0.27,1.167,0.629,1.63,1.081c0.463,0.452,0.834,0.99,1.113,1.614C367.403,50.232,367.543,50.899,367.543,51.609z
		 M366.349,61.258v33.11h-7.971v-33.11H366.349z"/>
	<path d="M376.773,94.368V67.26l-2.872-0.452c-0.624-0.107-1.124-0.323-1.501-0.646c-0.376-0.323-0.564-0.774-0.564-1.355v-3.259
		h4.938v-2.453c0-1.893,0.285-3.593,0.855-5.099c0.569-1.506,1.388-2.786,2.452-3.84c1.065-1.054,2.361-1.861,3.889-2.42
		s3.249-0.839,5.164-0.839c1.527,0,2.947,0.205,4.26,0.613l-0.162,4.001c-0.043,0.625-0.333,1.012-0.871,1.162
		c-0.538,0.151-1.161,0.226-1.871,0.226c-0.947,0-1.792,0.103-2.534,0.307c-0.742,0.205-1.371,0.56-1.888,1.065
		c-0.516,0.506-0.909,1.173-1.178,2.001c-0.27,0.829-0.403,1.855-0.403,3.082v2.194h8.616v5.68h-8.358v27.14H376.773z"/>
	<path d="M409.721,103.468c-0.237,0.559-0.544,0.984-0.92,1.274c-0.377,0.291-0.952,0.436-1.727,0.436h-5.938l6.195-13.264
		L393.94,61.258h6.971c0.646,0,1.141,0.151,1.484,0.452c0.344,0.302,0.603,0.646,0.774,1.033l7.067,17.168
		c0.237,0.56,0.441,1.141,0.613,1.743c0.172,0.603,0.323,1.205,0.452,1.807c0.172-0.624,0.36-1.226,0.564-1.807
		s0.425-1.172,0.662-1.775l6.647-17.136c0.172-0.43,0.457-0.785,0.855-1.065c0.397-0.279,0.844-0.419,1.339-0.419h6.39
		L409.721,103.468z"/>
</g>
<polyline fill="#F47F12" points="63.55,121.18 124.561,63.842 122.55,61.258 "/>
<polyline fill="#F47F12" points="66.865,124.329 127.876,66.992 125.689,64.602 "/>
</svg>
