<?xml version="1.0" encoding="iso-8859-1"?>
<!-- Generator: Adobe Illustrator 21.0.0, SVG Export Plug-In . SVG Version: 6.00 Build 0)  -->
<svg xmlns="http://www.w3.org/2000/svg" xmlns:xlink="http://www.w3.org/1999/xlink" version="1.1" id="Capa_1" x="0px" y="0px" viewBox="0 0 512 512" style="enable-background:new 0 0 512 512;" xml:space="preserve" width="512" height="512">
<g>
	<g>
		<path style="fill:#FDDB33;" d="M41.222,262.85c-8.215,20.086-15.43,42.382-18.362,68.503C11.592,431.743,88.858,512,189.806,512    s182.782-81.893,182.782-182.913c0-18.645-8.743-45.19-8.743-45.19c-7.974,52.863-51.829,82.786-51.829,82.786    c26.911-70.817,12.667-134.799-19.934-181.53C218.325,79.426,237.263,7.611,237.263,7.611    c-98.674,87.773-92.694,184.523-92.694,184.523c-9.059-58.679-83.144-82.021-83.144-82.021    c24.437,41.465,15.645,73.599-0.756,109.098C48.713,245.09,41.222,262.85,41.222,262.85z"/>
	</g>
	<g>
		<path style="fill:#F9C032;" d="M144.618,186.735L144.618,186.735c-11.164-53.788-83.193-76.622-83.193-76.622    c6.37,10.808,10.464,20.979,12.772,30.744C97.934,148.17,144.618,186.735,144.618,186.735z"/>
		<path style="fill:#F9C032;" d="M251.487,185.152c32.601,46.732,66.673,87.847,60.584,181.214l0,0    c8.119-21.312,14.208-49.728,14.067-72.633c0.235-41.466-13.127-78.579-34.057-108.581    C218.325,79.426,237.263,7.611,237.263,7.611c-16.606,14.771-30.236,29.795-41.441,44.571    C199.602,83.51,212.771,129.654,251.487,185.152z"/>
		<path style="fill:#F9C032;" d="M363.845,283.897c-4.45,29.505-20.078,51.86-33.02,65.858    c-9.514,84.643-76.742,151.795-161.382,161.124c6.664,0.732,13.456,1.121,20.362,1.121c100.948,0,182.782-81.893,182.782-182.913    C372.588,310.442,363.845,283.897,363.845,283.897z"/>
	</g>
	<g>
		<path style="fill:#FF7373;" d="M343.496,76.066c4.204,0,7.612-3.407,7.612-7.611v-22.81l22.811,0c4.203,0,7.611-3.408,7.611-7.611    s-3.407-7.611-7.611-7.611l-22.811,0V7.611c0-4.204-3.407-7.611-7.612-7.611s-7.611,3.407-7.611,7.611v22.81l-22.81,0    c-4.203,0-7.612,3.408-7.612,7.611s3.407,7.611,7.612,7.611l22.81,0v22.81C335.885,72.659,339.292,76.066,343.496,76.066z"/>
		<path style="fill:#FF7373;" d="M482.621,81.805H459.81v-22.81c0-4.204-3.407-7.611-7.612-7.611s-7.611,3.407-7.611,7.611v22.81    h-22.811c-4.204,0-7.612,3.407-7.612,7.611s3.407,7.611,7.612,7.611h22.811v22.811c0,4.204,3.407,7.611,7.611,7.611    s7.612-3.407,7.612-7.611V97.028h22.811c4.204,0,7.612-3.407,7.612-7.611S486.825,81.805,482.621,81.805z"/>
		<path style="fill:#FF7373;" d="M406.319,153.655h-22.811v-22.811c0-4.204-3.407-7.612-7.612-7.612s-7.611,3.407-7.611,7.612    v22.811h-22.81c-4.204,0-7.611,3.407-7.611,7.611s3.407,7.611,7.611,7.611h22.81v22.811c0,4.204,3.407,7.611,7.611,7.611    s7.612-3.407,7.612-7.611v-22.811h22.811c4.204,0,7.611-3.407,7.611-7.611S410.523,153.655,406.319,153.655z"/>
	</g>
	<path style="fill:#FF7373;" d="M235.124,389.708c6.992,14.49,12.002,28.067,12.002,37.223c0,30.299-24.562,54.861-54.861,54.861   s-54.861-24.562-54.861-54.861s54.861-109.009,54.861-109.009s12.632,18.124,25.773,40.325L235.124,389.708z"/>
</g>















</svg>
