<?xml version="1.0"?>
<svg xmlns="http://www.w3.org/2000/svg" xmlns:xlink="http://www.w3.org/1999/xlink" xmlns:svgjs="http://svgjs.com/svgjs" version="1.1" width="512" height="512" x="0" y="0" viewBox="0 0 511.999 511.999" style="enable-background:new 0 0 512 512" xml:space="preserve" class=""><g><g xmlns="http://www.w3.org/2000/svg"><g><g><g><path d="m463.979 183.937-201.285-181.366c-3.805-3.428-9.583-3.428-13.388 0l-201.285 181.366c-2.104 1.895-3.306 4.596-3.306 7.429v64.02c0 3.92 2.291 7.48 5.859 9.103 3.568 1.621 7.756 1.012 10.712-1.564l5.101-4.447v243.523c0 5.522 4.477 10 10 10h359.226c5.523 0 10-4.478 10-10v-243.524l5.101 4.447c1.857 1.619 4.202 2.462 6.573 2.462 1.401 0 2.813-.295 4.139-.897 3.568-1.623 5.859-5.183 5.859-9.103v-64.02c0-2.833-1.202-5.534-3.306-7.429zm-38.366 308.062h-339.226v-250.957l169.613-147.857 169.613 147.857zm21.672-258.597-4.504-3.926c-.385-.396-.802-.76-1.248-1.088l-178.962-156.008c-1.883-1.642-4.227-2.462-6.571-2.462s-4.688.82-6.571 2.462l-178.963 156.008c-.446.328-.863.692-1.248 1.088l-4.504 3.926v-37.586l191.286-172.356 191.285 172.355z" fill="#f47f12" data-original="#000000" style="" class=""/><path d="m249.311 153.239-121.408 109.226c-2.082 1.874-3.284 4.535-3.311 7.337l-1.798 183.986c-.026 2.669 1.016 5.237 2.894 7.134 1.878 1.896 4.437 2.964 7.105 2.964h246.413c5.523 0 10-4.478 10-10v-54.406c0-5.522-4.477-10-10-10s-10 4.478-10 10v44.406h-103.023v-17.834h5.444c26.196 0 47.507-21.312 47.507-47.507v-26.477c0-4.452-2.91-8.225-6.932-9.52 4.403-7.203 6.943-15.663 6.943-24.706v-26.476c0-5.522-4.477-10-10-10h-15.444c-.742 0-1.479.018-2.213.052.422-2.142.654-4.349.654-6.613 0-24.728-27.544-42.542-30.685-44.492-3.23-2.006-7.318-2.006-10.549 0-3.141 1.95-30.685 19.764-30.685 44.492 0 2.265.231 4.472.654 6.613-.734-.034-1.471-.052-2.213-.052h-15.444c-5.523 0-10 4.478-10 10v26.476c0 9.042 2.54 17.503 6.943 24.706-4.022 1.295-6.932 5.068-6.932 9.52v26.477c0 26.195 21.312 47.507 47.508 47.507h5.444v17.834h-103.291l1.656-169.492 111.501-100.313 113.158 100.318v34.669c0 5.522 4.477 10 10 10s10-4.478 10-10v-39.168c0-2.861-1.225-5.585-3.366-7.482l-123.207-109.227c-3.807-3.375-9.54-3.356-13.323.048zm49.824 225.306c0 15.167-12.34 27.507-27.507 27.507h-5.444v-16.476c0-15.168 12.34-27.508 27.507-27.508h5.444zm.011-77.177v16.476c0 15.168-12.34 27.508-27.508 27.508h-5.444v-16.477c0-15.167 12.34-27.507 27.507-27.507zm-42.945-50.247c6.786 5.439 15.941 14.768 15.941 23.685 0 8.85-9.19 18.22-15.977 23.685-6.786-5.439-15.941-14.768-15.941-23.685 0-8.85 9.19-18.221 15.977-23.685zm-42.981 50.247h5.444c15.168 0 27.508 12.34 27.508 27.507v16.477h-5.444c-15.168 0-27.508-12.34-27.508-27.508zm.011 77.177v-16.477h5.444c15.168 0 27.508 12.34 27.508 27.508v16.476h-5.444c-15.168 0-27.508-12.34-27.508-27.507z" fill="#f47f12" data-original="#000000" style="" class=""/><path d="m388.44 350.629c-1.66-3.988-5.816-6.525-10.127-6.135-4.136.374-7.68 3.367-8.763 7.371-1.068 3.947.476 8.289 3.787 10.682 3.319 2.399 7.839 2.514 11.286.309 4.032-2.579 5.623-7.818 3.817-12.227z" fill="#f47f12" data-original="#000000" style="" class=""/></g></g></g></g></g></svg>
