<?xml version="1.0"?>
<svg xmlns="http://www.w3.org/2000/svg" xmlns:xlink="http://www.w3.org/1999/xlink" xmlns:svgjs="http://svgjs.com/svgjs" version="1.1" width="512" height="512" x="0" y="0" viewBox="0 0 512 512" style="enable-background:new 0 0 512 512" xml:space="preserve"><g>
<g xmlns="http://www.w3.org/2000/svg">
	<g>
		<path d="M399.64,0c-35.28,0-66.09,16.92-89.1,48.93c-3.44,4.79-6.45,9.57-9.08,14.15c-2.55-4.55-5.5-9.3-8.85-14.05    C269.93,16.95,239.27,0,203.93,0C138.64,0,91.58,55.25,91.58,121.68c0,34.4,13.51,66.06,43.41,100.82    c-6.36,5.71-11.1,13.19-13.41,21.66c-5.13-2.04-10.73-3.16-16.58-3.16c-20.72,0-38.21,14.07-43.42,33.16    C56.45,272.12,50.85,271,45,271c-24.81,0-45,20.19-45,45v80.26c0,8.08,1.29,16.06,3.83,23.67l26.92,81.76    C32.78,507.84,38.52,512,45,512h210c6.15,0,11.67-3.75,13.94-9.47l53.24-134.09c1.72-4.31,2.72-8.78,3.08-13.26    c9.54-8.25,18.76-16.19,27.64-23.84C448.56,249,512,197.91,512,121.68C512,55.24,464.92,0,399.64,0z M294.31,357.34L244.82,482    H55.85l-23.54-71.51c-1.53-4.59-2.31-9.38-2.31-14.23V316c0-8.27,6.73-15,15-15s15,6.73,15,15v30c0,8.28,6.72,15,15,15    c8.28,0,15-6.72,15-15v-60c0-8.27,6.73-15,15-15s15,6.73,15,15v60c0,8.28,6.72,15,15,15c8.28,0,15-6.72,15-15v-90    c0-8.28,6.75-15,15-15c8.27,0,15,6.73,15,15v90c0,8.28,6.72,15,15,15c8.28,0,15-6.72,15-15V166c0-8.27,6.73-15,15-15    s15,6.73,15,15v180c0,8.28,6.72,15,15,15c8.28,0,15-6.72,15-15v-29.45l21.79,25.42C295.43,346.22,296.41,352.1,294.31,357.34z     M333.33,308.6c-5.74,4.95-11.64,10.03-17.66,15.22c-0.37-0.46-0.72-0.93-1.11-1.38L270,270.45V166c0-24.81-20.19-45-45-45    s-45,20.19-45,45v47.57c-4.69-1.66-9.74-2.57-15-2.57h-0.07c-30.31-32.7-43.35-59.71-43.35-89.32c0-52.27,35.4-91.68,82.35-91.68    c25.29,0,46.72,12,63.7,35.68c13.6,18.96,19.15,38.49,19.19,38.65c1.77,6.48,7.64,10.98,14.36,11.03h0.11    c6.67,0,12.55-4.42,14.41-10.84c0.06-0.19,5.84-19.75,19.68-38.74C352.69,42.04,374.31,30,399.64,30    C446.59,30,482,69.41,482,121.68C482,182.78,426.64,228.29,333.33,308.6z" fill="#f47f12" data-original="#000000" style=""/>
	</g>
</g>
<g xmlns="http://www.w3.org/2000/svg">
</g>
<g xmlns="http://www.w3.org/2000/svg">
</g>
<g xmlns="http://www.w3.org/2000/svg">
</g>
<g xmlns="http://www.w3.org/2000/svg">
</g>
<g xmlns="http://www.w3.org/2000/svg">
</g>
<g xmlns="http://www.w3.org/2000/svg">
</g>
<g xmlns="http://www.w3.org/2000/svg">
</g>
<g xmlns="http://www.w3.org/2000/svg">
</g>
<g xmlns="http://www.w3.org/2000/svg">
</g>
<g xmlns="http://www.w3.org/2000/svg">
</g>
<g xmlns="http://www.w3.org/2000/svg">
</g>
<g xmlns="http://www.w3.org/2000/svg">
</g>
<g xmlns="http://www.w3.org/2000/svg">
</g>
<g xmlns="http://www.w3.org/2000/svg">
</g>
<g xmlns="http://www.w3.org/2000/svg">
</g>
</g></svg>
